<?xml version="1.0" encoding="UTF-8" standalone="no"?>
<svg
   xmlns:dc="http://purl.org/dc/elements/1.1/"
   xmlns:cc="http://creativecommons.org/ns#"
   xmlns:rdf="http://www.w3.org/1999/02/22-rdf-syntax-ns#"
   xmlns:svg="http://www.w3.org/2000/svg"
   xmlns="http://www.w3.org/2000/svg"
   xmlns:sodipodi="http://sodipodi.sourceforge.net/DTD/sodipodi-0.dtd"
   xmlns:inkscape="http://www.inkscape.org/namespaces/inkscape"
   id="b1ebf38a-540d-11ea-92ae-0242ac11000e"
   version="1.1"
   width="612.0pt"
   viewBox="0 0 612.0 792.0"
   height="792.0pt"
   inkscape:version="0.91 r13725"
   sodipodi:docname="GARAGE-53.svg">
  <sodipodi:namedview
     pagecolor="#ffffff"
     bordercolor="#666666"
     borderopacity="1"
     objecttolerance="10"
     gridtolerance="10"
     guidetolerance="10"
     inkscape:pageopacity="0"
     inkscape:pageshadow="2"
     inkscape:window-width="1366"
     inkscape:window-height="653"
     id="namedview14"
     showgrid="false"
     inkscape:zoom="0.47676768"
     inkscape:cx="69.375828"
     inkscape:cy="359.34828"
     inkscape:window-x="0"
     inkscape:window-y="30"
     inkscape:window-maximized="1"
     inkscape:current-layer="g4142" />
  <metadata
     id="metadata25">
    <rdf:RDF>
      <cc:Work
         rdf:about="">
        <dc:format>image/svg+xml</dc:format>
        <dc:type
           rdf:resource="http://purl.org/dc/dcmitype/StillImage" />
        <dc:title />
      </cc:Work>
    </rdf:RDF>
  </metadata>
  <defs
     id="defs23" />
  <g
     id="g2" />
  <g
     id="g14"
     transform="matrix(0.01530693,0,0,0.01530693,-1295.1442,-726.04168)"
     inkscape:export-filename="/home/vaishakh/Documents/Other Docs/Projects-Web/Project-8-Garage/Project-file/src/img/icons/logo-compress.png"
     inkscape:export-xdpi="95.449997"
     inkscape:export-ydpi="95.449997">
    <g
       id="g4142"
       inkscape:export-filename="/home/vaishakh/Documents/Other Docs/Projects-Web/Project-8-Garage/Project-file/src/img/icons/logo-compress.png"
       inkscape:export-xdpi="95.449997"
       inkscape:export-ydpi="95.449997">
      <g
         id="g4149"
         inkscape:export-filename="/home/vaishakh/Documents/Other Docs/Projects-Web/Project-8-Garage/Project-file/src/img/icons/logo-compress.png"
         inkscape:export-xdpi="95.449997"
         inkscape:export-ydpi="95.449997"
         transform="matrix(12.914829,0,0,12.40024,102686.66,95228.019)"
         style="fill:#ffffff">
        <path
           id="path4"
           d="m -1084.1034,-2443.4104 c -9.6225,-18.1276 -15.7587,-31.5451 -18.2883,-40.1681 -2.6204,-8.6519 -3.57,-16.7281 -2.8177,-24.3127 1.2694,-13.1826 7.1292,-25.147 17.6395,-35.7809 10.5103,-10.6336 26.4719,-20.7136 47.916,-30.3236 14.9496,-6.6997 30.5835,-11.8245 46.9318,-15.3182 16.348,-3.4934 33.3805,-5.4122 50.9746,-5.7007 l 35.3815,66.6552 -59.6146,26.7163 -0.6874,-1.2949 c -5.9766,-11.2592 -12.7891,-18.5204 -20.4052,-21.867 -7.6164,-3.3463 -16.1578,-2.8639 -25.7772,1.4471 -10.2931,4.6128 -16.183,10.8065 -17.6986,18.5244 -1.486,7.774 1.2379,18.1913 8.2003,31.3086 l 45.6914,86.0778 c 7.0222,13.2292 14.3093,21.6714 21.8917,25.3817 7.5517,3.6541 16.4894,3.2028 26.7825,-1.4103 10.048,-4.5028 15.8451,-10.5851 17.2999,-18.2755 1.4542,-7.6904 -1.2991,-18.1641 -8.3812,-31.5062 l -4.6321,-8.7262 -25.3043,11.34 -21.3662,-40.252 84.9189,-38.0562 59.8853,112.8183 c -8.5289,13.5088 -19.2379,25.6255 -32.0661,36.3223 -12.8276,10.6965 -27.3143,19.6977 -43.4279,26.9189 -19.4224,8.7041 -36.3982,13.8728 -50.9893,15.5333 -14.6202,1.6044 -27.7421,-0.1111 -39.363,-5.2869 -8.5861,-3.8874 -16.2978,-9.7001 -23.1352,-17.4376 -6.8678,-7.7936 -15.5007,-21.4863 -25.96,-41.1899 l -43.5991,-82.137 z m 296.1842,71.0566 -16.6454,-44.4175 c 4.0459,-2.6711 6.681,-6.2206 7.7987,-10.5488 1.1398,-4.2693 0.8212,-11.8528 -0.7824,-22.6732 l -31.3866,-204.7692 98.8081,-31.2613 118.2796,182.1135 c 4.8433,7.3446 9.1431,12.2774 12.704,14.6617 3.583,2.4434 7.8429,3.6133 12.6916,3.4701 l 16.6447,44.4175 -97.8409,30.9555 -16.6453,-44.4175 c 4.3143,-1.7623 7.3287,-4.1074 9.0859,-7.1141 1.7345,-3.0662 1.9584,-6.3167 0.6049,-9.9295 -0.3328,-0.8884 -0.8192,-1.993 -1.4587,-3.3143 -0.6168,-1.2622 -1.3431,-2.6226 -2.1779,-4.0807 l -6.5996,-10.2997 -55.4947,17.5575 1.3235,10.8428 c 0.4303,1.9177 0.8138,3.5187 1.1288,4.7438 0.337,1.2844 0.6944,2.4301 1.0715,3.437 1.6645,4.4419 4.0878,7.2525 7.3136,8.5502 3.2485,1.3572 7.6017,1.2387 13.1049,-0.2376 l 16.6447,44.4175 -88.173,27.8963 z m 40.6252,-139.5796 39.1235,-12.3778 -57.4979,-94.756 18.3744,107.1338 z m 250.058,-109.9018 27.0046,-5.2742 c 12.602,-2.4613 21.2085,-6.8317 25.8191,-13.111 4.6105,-6.2796 5.5927,-14.9879 3.0132,-26.1386 -2.5934,-11.2119 -7.3882,-18.9839 -14.4366,-23.2427 -7.0483,-4.2585 -16.6068,-5.2092 -28.7422,-2.8392 l -27.7384,5.4176 15.0803,65.1881 z m 19.0908,82.5267 c 2.6359,11.3956 5.3756,18.4167 8.1797,21.1986 2.8037,2.7822 7.234,4.1585 13.2516,4.2636 l 10.6297,45.9505 -98.8838,19.3124 -10.6296,-45.9501 c 5.5836,-2.3712 9.0745,-5.3584 10.5097,-9.0964 1.368,-3.7253 0.7767,-11.1019 -1.8028,-22.2523 l -29.2247,-126.3325 c -2.5792,-11.1503 -5.3042,-18.1102 -8.2032,-21.0022 -2.9661,-2.8788 -7.4769,-4.3027 -13.6278,-4.3823 l -10.2189,-44.1734 116.8875,-22.8288 c 34.2059,-6.6805 60.6036,-5.2407 79.0449,4.2848 18.4417,9.5255 30.8631,27.9748 37.1985,55.3612 3.9118,16.9098 3.2335,31.4501 -1.9403,43.7306 -5.1735,12.2809 -14.703,21.6978 -28.5747,28.3131 14.897,0.2284 25.8285,2.8961 32.7941,8.003 6.9803,5.1687 12.02,14.3016 15.0672,27.4742 l 3.4016,14.7039 c 2.3528,10.1702 4.8875,16.9112 7.5909,20.1612 2.7836,3.2983 6.6424,4.9144 11.67,4.9569 l 10.6296,45.9502 -73.6795,14.39 c -3.0311,-3.7624 -5.6699,-8.2417 -7.8367,-13.3897 -2.2331,-5.1349 -4.6842,-13.621 -7.4194,-25.4455 l -8.0929,-34.9835 c -3.1323,-13.5399 -7.6822,-22.0643 -13.5848,-25.586 -5.902,-3.5221 -15.8281,-3.953 -29.764,-1.2311 l -21.3373,4.1672 7.9654,34.4324 z m 179.5357,41.2387 -4.4561,-46.798 c 4.629,-1.6923 8.1204,-4.5507 10.3445,-8.5022 2.2297,-3.8889 3.9175,-11.3179 5.2104,-22.1735 l 23.4592,-205.6637 104.1038,-8.3687 66.818,202.9963 c 2.7652,8.2029 5.6386,13.945 8.4662,17.0501 2.8332,3.1675 6.6586,5.2492 11.4009,6.1883 l 4.4561,46.7981 -103.0853,8.2868 -4.456,-46.7981 c 4.6499,-0.7509 8.1921,-2.3561 10.6888,-4.8829 2.4903,-2.5898 3.5638,-5.694 3.2012,-9.5001 -0.0893,-0.9362 -0.2701,-2.116 -0.5425,-3.5404 -0.2665,-1.3618 -0.6129,-2.8432 -1.0389,-4.4436 l -3.6916,-11.4608 -58.4691,4.7004 -1.571,10.8151 c -0.0873,1.9561 -0.1366,3.5949 -0.1536,4.8534 -0.0111,1.3213 0.034,2.5124 0.1349,3.5731 0.4459,4.68 2.0568,7.9458 4.8453,9.9218 2.7944,2.039 7.05,2.8919 12.7777,2.6827 l 4.4561,46.7981 -92.899,7.4678 z m 76.1686,-126.4028 41.2203,-3.3137 -30.8418,-104.7226 -10.3785,108.0363 z m 183.9688,-76.5966 c 0.383,-20.1657 1.5449,-34.6805 3.5515,-43.4191 1.9401,-8.8019 5.0843,-16.3939 9.502,-22.8382 7.6442,-11.2161 18.7773,-19.4324 33.3959,-24.5225 14.6188,-5.0905 33.8207,-7.4135 57.6762,-7.0308 16.6303,0.2667 33.0925,2.2221 49.3852,5.9289 16.2921,3.7066 32.4164,9.1021 48.2352,16.1842 l -1.4088,74.1495 -66.3171,-1.0636 0.0275,-1.4403 c 0.2378,-12.5251 -2.2442,-21.8367 -7.3769,-27.9955 -5.1327,-6.1588 -12.9818,-9.292 -23.6826,-9.4635 -11.4506,-0.1836 -19.7584,2.8778 -24.9222,9.1225 -5.1653,6.3068 -7.8855,16.725 -8.1627,31.3169 l -1.8193,95.7554 c -0.2795,14.717 2.0424,25.2786 6.9648,31.7475 4.9235,6.406 13.1099,9.7322 24.5605,9.9159 11.1775,0.1794 19.3481,-2.8219 24.444,-9.0672 5.0955,-6.2456 7.8174,-16.7264 8.0994,-31.5686 l 0.184,-9.7072 -28.1492,-0.4513 0.851,-44.7778 94.4662,1.5151 -2.3842,125.5028 c -14.2736,8.4787 -29.8023,14.8074 -46.5174,18.9873 -16.715,4.1797 -34.0696,6.1566 -51.995,5.8692 -21.606,-0.3467 -39.2857,-2.8228 -53.1065,-7.4299 -13.8195,-4.6692 -24.6634,-11.6714 -32.4607,-21.1306 -5.7294,-7.0455 -9.7285,-15.4414 -11.9979,-25.1881 -2.268,-9.8087 -3.1952,-25.6104 -2.7785,-47.5293 l 1.7356,-91.3717 z m 241.9413,198.5113 6.2308,-46.6268 c 6.1197,-0.5714 10.4786,-2.3516 13.1598,-5.4569 2.6139,-3.1128 4.6684,-10.2643 6.1804,-21.5791 l 17.1301,-128.1923 c 1.512,-11.3145 1.4017,-18.7103 -0.315,-22.3118 -1.7844,-3.609 -5.5445,-6.3051 -11.3323,-8.2204 l 5.9896,-44.8234 212.5199,23.9763 -11.3153,84.6739 -65.4271,-7.3814 0.3824,-2.8596 c 1.429,-10.6931 -0.2131,-18.4512 -4.9172,-23.3362 -4.7126,-4.8229 -13.8348,-7.9977 -27.2991,-9.5167 l -25.7788,-2.9084 -7.7341,57.8792 82.4775,9.305 -6.2309,46.6268 -82.4774,-9.305 -8.9059,66.6448 30.5147,3.4427 c 11.7731,1.3283 20.2422,0.138 25.3324,-3.5155 5.0896,-3.6542 8.4452,-11.2902 9.9822,-22.7912 l 1.3374,-10.0091 65.427,7.3814 -12.4115,92.88 -212.5196,-23.9763 z m 472.443,-199.3487 188.6573,59.688 -26.6542,71.1272 -61.7468,-19.5358 c 2.0489,-8.1623 1.7263,-14.2265 -0.9465,-18.252 -2.7377,-4.0459 -9.9397,-7.914 -21.6706,-11.6254 l -30.9379,-9.7883 -17.8877,47.7337 c 10.2421,-0.2044 19.4871,0.1369 27.8827,1.2033 8.3537,0.987 16.5481,2.7848 24.6047,5.3337 28.2955,8.9523 46.3221,22.6048 54.0156,40.9376 7.6711,18.3921 5.614,43.3117 -6.2371,74.937 -11.7402,31.3291 -28.0414,51.7422 -48.8389,61.2595 -20.7975,9.5176 -47.9333,9.0145 -81.256,-1.5284 -19.4006,-6.1381 -36.8424,-14.0411 -52.4114,-23.6704 -15.5047,-9.6086 -28.3655,-20.501 -38.4534,-32.6356 l 25.4335,-67.8696 65.3565,20.6776 -0.5108,1.362 c -4.9932,13.3251 -5.9258,23.8944 -2.8401,31.6276 3.0637,7.7927 10.44,13.5048 22.1707,17.2162 11.0216,3.4869 20.1259,2.8565 27.3345,-1.9511 7.1223,-4.7687 13.4795,-14.6151 19.072,-29.5393 5.2824,-14.0952 6.715,-25.0361 4.2531,-32.7041 -2.5035,-7.7482 -9.0195,-13.2542 -19.5899,-16.5986 -6.1234,-1.9374 -11.8282,-2.6821 -17.1145,-2.2351 -5.2441,0.527 -10.5009,2.2422 -15.8576,5.1849 l -71.2216,-22.5335 55.3944,-147.8211 z m 224.5025,164.632 30.2715,-57.0283 c 16.7825,-1.4686 33.9253,-0.6157 51.5197,2.5302 17.5646,3.2026 34.6946,8.5099 51.298,15.9509 28.8578,12.9328 47.7771,28.7285 56.7575,47.3879 8.981,18.659 7.5535,39.0654 -4.2505,61.3026 -8.098,15.2563 -18.5023,25.8554 -31.2126,31.7973 -12.7106,5.9417 -28.1211,7.3982 -46.2027,4.3124 15.2546,9.5545 24.2214,21.2386 27.0824,34.9951 2.831,13.8124 -0.4748,29.6138 -9.9476,47.4596 -13.1187,24.7145 -30.9135,39.8064 -53.3851,45.2767 -22.4099,5.4975 -49.193,1.2299 -80.3177,-12.7185 -15.3173,-6.8644 -29.7111,-15.7541 -43.1813,-26.6692 -13.4408,-10.9712 -25.3724,-23.3566 -35.735,-37.2696 l 31.7055,-59.7305 62.1269,27.8421 -1.0457,1.9704 c -5.2594,9.9082 -6.7518,18.5777 -4.4469,25.952 2.3045,7.3746 8.3735,13.2304 18.1766,17.6236 9.1902,4.1187 17.5807,4.7429 25.1404,1.7892 7.5597,-2.954 13.8938,-9.3141 19.0335,-18.9972 5.887,-11.0906 7.3134,-20.2074 4.2183,-27.3787 -3.0952,-7.1714 -11.643,-13.9292 -25.7349,-20.2445 l -34.3109,-15.3763 22.5919,-42.5599 36.4549,16.3372 c 11.702,5.2444 22.0235,6.8034 30.9325,4.5941 8.9706,-2.1824 15.8304,-7.8191 20.6714,-16.9393 4.7815,-9.0073 5.7297,-17.2238 2.8454,-24.6489 -2.8233,-7.3979 -9.1672,-13.3072 -18.97,-17.7007 -8.5167,-3.8165 -16.2961,-4.3061 -23.4297,-1.4402 -7.1337,2.8661 -13.5321,8.9186 -19.2252,18.2142 l -59.4306,-26.6337 z"
           style="fill:#ffffff;fill-opacity:1;fill-rule:evenodd"
           inkscape:connector-curvature="0" />
        <path
           id="path6"
           d="m -191.3057,-1957.3736 0,-18.7886 c 2.0477,-0.5011 3.4438,-1.4028 4.2117,-2.7558 0.7447,-1.3527 1.1169,-4.2837 1.1169,-8.8433 l 0,-51.6563 c 0,-4.5595 -0.3722,-7.4905 -1.1169,-8.8432 -0.7679,-1.3527 -2.164,-2.2547 -4.2117,-2.7556 l 0,-18.0623 73.0885,0 0,34.1203 -22.5014,0 0,-1.1523 c 0,-4.3089 -0.9074,-7.3151 -2.7224,-9.0436 -1.815,-1.7037 -5.0494,-2.5555 -9.68,-2.5555 l -8.8654,0 0,23.3232 28.3652,0 0,18.7886 -28.3652,0 0,26.8554 10.4941,0 c 4.0491,0 6.8644,-0.8518 8.4238,-2.5302 1.5587,-1.6783 2.3499,-4.86 2.3499,-9.4946 l 0,-4.0331 22.5014,0 0,37.4269 -73.0885,0 z m 86.5378,-10.6469 0,-27.9575 23.3158,0 0,2.2045 c 0,5.4362 0.9774,9.4195 2.9554,11.9746 1.9777,2.5302 5.049,3.8078 9.1678,3.8078 3.2343,0 5.8405,-1.0772 7.8418,-3.2315 2.0009,-2.1546 3.0016,-4.9603 3.0016,-8.4424 0,-3.382 -1.0472,-6.213 -3.1646,-8.5176 -2.1175,-2.3048 -5.8405,-4.5343 -11.1459,-6.6889 -1.1866,-0.4759 -2.8854,-1.1522 -5.1193,-2.0542 -8.0975,-3.1315 -13.845,-6.1127 -17.2423,-8.9433 -3.5136,-2.9311 -6.0733,-6.238 -7.6788,-9.8703 -1.6056,-3.6575 -2.4199,-8.0166 -2.4199,-13.102 0,-10.0207 3.141,-17.9371 9.447,-23.7489 6.2827,-5.787 14.8226,-8.693 25.5963,-8.693 6.3059,0 12.2859,1.002 17.8937,3.0061 5.608,2.0041 10.9598,5.0604 16.056,9.1689 l 0,26.2792 -22.8972,0 0,-1.9792 c 0,-4.7848 -0.9538,-8.4424 -2.8618,-10.9474 -1.9083,-2.4803 -4.6772,-3.7326 -8.3305,-3.7326 -3.3973,0 -6.1197,0.9519 -8.1675,2.8307 -2.0477,1.8788 -3.0716,4.384 -3.0716,7.5155 0,2.931 1.1404,5.3861 3.4438,7.3902 2.3038,1.9791 7.5629,4.4844 15.7765,7.5155 10.8205,3.9583 18.1732,8.4174 22.0825,13.3526 3.9093,4.9351 5.864,11.8743 5.864,20.7677 0,10.622 -3.1413,19.1143 -9.4473,25.4775 -6.2827,6.3629 -14.7759,9.5445 -25.4565,9.5445 -6.7714,0 -13.1703,-1.1021 -19.1736,-3.3066 -6.027,-2.2048 -11.4488,-5.4113 -16.2654,-9.6199 z M 4.4807,-2047.86 c -3.3508,0.1003 -5.7707,1.1273 -7.2598,3.1314 -1.4661,1.9792 -2.2107,5.1857 -2.2107,9.6449 l 0,11.2983 -19.2901,0 0,-45.2933 81.5117,0 0,45.2933 -19.0806,0 0,-11.2983 c 0,-4.5093 -0.7446,-7.7408 -2.2572,-9.695 -1.4893,-1.954 -3.9558,-2.981 -7.3528,-3.0813 l -0.07,60.0987 c 0,4.6596 0.3722,7.6159 1.0936,8.9184 0.7214,1.3028 2.0942,2.1796 4.0952,2.6807 l 0,18.7886 -34.5078,0 0,-18.7886 c 2.0474,-0.5011 3.4438,-1.4028 4.2117,-2.7558 0.7444,-1.3527 1.1168,-4.2837 1.1168,-8.8433 l 0,-60.0987 z m 93.123,68.0902 7.027,0 c 5.6778,0 9.4941,-1.0021 11.4021,-3.0062 1.908,-2.0041 2.8622,-6.2127 2.8622,-12.626 l 0,-33.6694 c 0,-7.4401 -0.9309,-12.3253 -2.7692,-14.6049 -1.838,-2.3049 -5.2588,-3.4572 -10.2617,-3.4572 l -1.3728,0 -6.8876,0.1503 0,67.2134 z m 5.1891,22.3962 -34.5082,0 0,-18.7886 c 2.0475,-0.5011 3.4438,-1.4028 4.2115,-2.7558 0.7446,-1.3527 1.1171,-4.2837 1.1171,-8.8433 l 0,-51.6563 c 0,-4.5595 -0.3725,-7.5155 -1.1171,-8.8432 -0.7677,-1.3527 -2.164,-2.2547 -4.2115,-2.7556 l 0,-18.0623 34.5082,0 c 15.3575,0 25.8752,3.0313 31.5759,9.0686 5.6778,6.0375 8.5164,17.0603 8.5164,33.0681 l 0,26.7052 c 0,16.8347 -2.6988,28.1829 -8.1207,34.0449 -5.3985,5.8873 -16.0557,8.8183 -31.9716,8.8183 z m 57.5441,-10.4967 c 0,-3.2065 1.1169,-6.0372 3.3508,-8.4172 2.2105,-2.4049 4.8402,-3.6073 7.8186,-3.6073 3.0948,0 5.7243,1.1772 7.8417,3.5322 2.1408,2.3298 3.2111,5.1857 3.2111,8.4923 0,3.282 -1.0703,6.0877 -3.2346,8.3673 -2.164,2.3049 -4.7701,3.4572 -7.8182,3.4572 -2.9552,0 -5.5381,-1.1775 -7.7953,-3.5575 -2.2572,-2.3797 -3.3741,-5.1355 -3.3741,-8.267 z"
           style="fill:#ffffff;fill-opacity:1;fill-rule:evenodd"
           inkscape:connector-curvature="0" />
        <path
           id="path8"
           d="m -152.0881,-1414.6988 0,-31.2421 c 4.0584,-3.312 8.9643,-5.8937 14.7623,-7.7975 5.798,-1.8774 11.7071,-2.8162 17.7726,-2.8162 11.4843,0 19.8913,2.4511 25.2207,7.38 5.3076,4.9028 7.9611,12.7003 7.9611,23.4184 0,6.5197 -1.0034,11.9702 -3.0104,16.4035 -2.0069,4.4334 -6.2662,9.6489 -12.8001,15.6731 l -21.8089,20.1846 c -2.5645,2.3732 -4.2591,4.4334 -5.0618,6.1025 -0.8028,1.6951 -1.2042,3.6771 -1.2042,5.972 l 0,0.9128 9.7223,0 c 4.0586,0 6.7793,-0.6781 8.2066,-2.0603 1.4048,-1.3821 2.1183,-4.329 2.1183,-8.8667 l 0,-3.5989 24.3513,0 0,37.0576 -67.9915,0 0,-27.1998 c 0,-5.7634 0.7582,-10.4055 2.2524,-13.978 1.4938,-3.5728 4.4149,-7.3281 8.7188,-11.2399 l 25.4217,-23.3141 c 2.609,-2.3471 4.4376,-4.4334 5.508,-6.3111 1.0703,-1.8516 1.6055,-3.8075 1.6055,-5.8938 0,-3.2074 -0.8028,-5.7109 -2.3859,-7.5104 -1.5835,-1.7733 -3.8135,-2.66 -6.6901,-2.66 -3.3896,0 -6.0432,1.1214 -7.9608,3.3902 -1.9179,2.2689 -2.8766,5.4241 -2.8766,9.4403 l 0,8.5538 -21.8313,0 z m 127.1818,38.6742 0,-40.1868 c 0,-6.0763 -0.8249,-10.4054 -2.4752,-13.013 -1.6725,-2.5818 -4.3484,-3.8857 -8.0502,-3.8857 -3.7017,0 -6.3779,1.3039 -8.0056,3.8857 -1.6276,2.6076 -2.4528,6.9367 -2.4528,13.013 l 0,40.1868 c 0,6.1546 0.8252,10.5619 2.4528,13.1698 1.6277,2.6339 4.3039,3.9379 8.0056,3.9379 3.7018,0 6.3777,-1.3301 8.0502,-3.964 1.6503,-2.66 2.4752,-7.0413 2.4752,-13.1437 z m 22.924,-1.0689 c 0,9.1012 -0.4237,15.6991 -1.271,19.7413 -0.8473,4.0683 -2.2524,7.5365 -4.2146,10.4312 -2.6093,3.8857 -6.1772,6.7283 -10.6818,8.5538 -4.5042,1.8516 -10.2577,2.7644 -17.282,2.7644 -7.0021,0 -12.7777,-0.9128 -17.3043,-2.7644 -4.527,-1.8255 -8.0949,-4.6681 -10.6594,-8.5538 -1.9622,-2.8426 -3.3449,-6.2325 -4.1477,-10.1704 -0.8028,-3.9118 -1.2041,-10.588 -1.2041,-20.0021 l 0,-38.2051 c 0,-9.0754 0.4013,-15.5948 1.2041,-19.6109 0.8028,-3.9901 2.1855,-7.4586 4.1477,-10.4055 2.5645,-3.8857 6.1324,-6.7283 10.6594,-8.5277 4.5266,-1.7992 10.3022,-2.7119 17.3043,-2.7119 7.0243,0 12.7778,0.9127 17.282,2.7119 4.5046,1.7994 8.0725,4.642 10.6818,8.5277 1.9622,2.9469 3.3673,6.4676 4.2146,10.5359 0.8473,4.0682 1.271,10.5616 1.271,19.4805 l 0,38.2051 z m 24.0239,-77.1665 27.9638,0 0,84.6508 c 0,4.8506 0.3569,7.9279 1.048,9.284 0.6914,1.3561 1.9848,2.2689 3.8577,2.7904 l 0,19.5588 -32.8695,0 0,-19.5588 c 1.9625,-0.5215 3.3004,-1.4604 4.0363,-2.8686 0.7138,-1.4083 1.0704,-4.4595 1.0704,-9.2058 l 0,-53.7738 c 0,-4.7464 -0.3566,-7.7973 -1.0704,-9.2055 -0.7359,-1.4083 -2.0738,-2.3471 -4.0363,-2.8687 l 0,-18.8028 z m 89.4734,20.5501 c -3.6573,0 -6.3556,1.2518 -8.0947,3.7814 -1.7393,2.5294 -2.6092,6.4412 -2.6092,11.7873 0,5.9199 0.8699,10.2489 2.5869,12.9872 1.7169,2.738 4.4152,4.1202 8.117,4.1202 3.59,0 6.2438,-1.33 7.9832,-3.9637 1.7393,-2.66 2.609,-6.6501 2.609,-11.9962 0,-5.946 -0.8473,-10.2229 -2.5197,-12.8305 -1.6725,-2.5818 -4.3708,-3.8857 -8.0725,-3.8857 z m -32.3791,64.7005 21.2738,0.078 c 0.1338,3.625 1.0927,6.3632 2.8769,8.267 1.7835,1.8776 4.3704,2.8165 7.7153,2.8165 4.1479,0 7.0245,-1.2257 8.6525,-3.6771 1.6279,-2.4253 2.4528,-7.276 2.4528,-14.5259 l 0,-9.5445 c -2.4752,1.8255 -5.1959,3.2338 -8.1615,4.1987 -2.9659,0.9649 -6.0656,1.4604 -9.277,1.4604 -9.7446,0 -16.8137,-2.8687 -21.1623,-8.6321 -4.3481,-5.7634 -6.5336,-15.2297 -6.5336,-28.4255 0,-9.6231 0.7138,-16.6641 2.1186,-21.1496 1.4273,-4.4856 3.8129,-8.1627 7.1581,-11.0835 2.7428,-2.4514 6.2439,-4.2769 10.4808,-5.5026 4.2593,-1.2254 9.1874,-1.8252 14.8068,-1.8252 11.6183,0 20.0695,2.6076 25.3102,7.8233 5.2404,5.2158 7.8718,13.6653 7.8718,25.3222 l 0,53.7999 c 0,11.6572 -2.6314,20.2368 -7.8942,25.7394 -5.2852,5.5026 -13.4912,8.267 -24.641,8.267 -5.5751,0 -11.1722,-0.7302 -16.7916,-2.2167 -5.6196,-1.4865 -11.0383,-3.625 -16.2564,-6.4154 l 0,-24.7745 z"
           style="fill:#ffffff;fill-opacity:1;fill-rule:evenodd"
           inkscape:connector-curvature="0" />
        <path
           id="path10"
           d="m 1184.8039,-1400.811 45.737,0 0,31.3625 -45.737,0 0,-31.3625 z m 12.4144,-83.6334 c 15.8989,12.6326 31.7976,9.5831 47.6971,-9.1474 l -6.5338,59.4581 -41.1633,0 0,-50.3107 z m -2314.7745,-104.6574 c 0,0 162.483,-33.3113 169.8021,-23.7025 7.319,9.6092 12.4424,33.9526 40.9867,32.671 28.5443,-1.2812 84.901,-14.0933 84.901,-14.0933 0,0 -93.6839,55.092 -165.4106,48.045 -71.7268,-7.0463 -130.2792,-42.9202 -130.2792,-42.9202 z m 2231.2718,-276.1359 39.3338,0 0,110.6836 c -13.1114,-10.9769 -26.223,-10.9769 -39.3338,0 l 0,-110.6836 z m -87.8151,0.9148 36.5896,0 0,102.4509 -36.5896,0 0,-102.4509 z m -291.7358,82.1721 c 23.7685,0.5031 46.2198,3.1768 62.9073,15.3439 42.1892,30.7599 30.4912,98.9365 -20.0316,113.8916 -14.0978,4.1728 -30.8435,5.1893 -49.4628,3.9713 35.437,9.1179 67.3588,9.5638 89.7349,-24.012 12.3599,-18.5465 16.6414,-33.8397 14.1843,-49.2392 -7.5552,-47.3499 -50.3348,-79.399 -97.3321,-59.9556 z m 368.8691,296.2542 c 12.793,13.542 26.4577,17.4977 42.0406,0.366 0.4825,-0.5307 1.51,0.5521 1.4346,1.2194 l -5.2588,46.4105 c -0.075,0.667 -0.6469,1.1917 -1.4346,1.2195 l -41.1795,1.4638 c -0.7883,0.028 -1.4958,-0.5505 -1.4349,-1.2195 1.4661,-16.08 2.9319,-32.1601 4.3977,-48.2402 0.061,-0.669 0.9405,-1.7425 1.4349,-1.2195 z m -10.895,80.4679 41.4561,0.3226 c 0.7784,0.01 1.4964,0.4867 1.4148,1.0744 l -4.6704,33.5239 c -0.082,0.587 -0.6378,1.0499 -1.4147,1.0743 l -40.6072,1.2898 c -0.7775,0.025 -1.4788,-0.485 -1.4148,-1.0743 l 3.8211,-35.136 c 0.064,-0.5894 0.6364,-1.08 1.4151,-1.0747 z m -82.2662,-0.5227 35.7315,0.3226 c 0.671,0.01 1.2898,0.4867 1.2195,1.0743 l -4.0255,33.524 c -0.07,0.587 -0.5496,1.0499 -1.2195,1.0743 l -34.9996,1.2898 c -0.6701,0.025 -1.2747,-0.485 -1.2195,-1.0744 l 3.2936,-35.136 c 0.055,-0.5893 0.5485,-1.08 1.2195,-1.0746 z m 7.685,-70.5364 35.7315,0.3659 c 0.671,0.01 1.2898,0.5525 1.2195,1.2195 l -4.0255,38.0472 c -0.07,0.6667 -0.5496,1.1916 -1.2194,1.2194 l -34.9997,1.4638 c -0.6701,0.028 -1.2747,-0.5507 -1.2195,-1.2194 l 3.2936,-39.877 c 0.055,-0.6687 0.5485,-1.226 1.2195,-1.2194 z m -562.8348,68.4805 496.5239,0 0,40.2516 -534.2496,0 37.7257,-40.2516 z m 40.3381,-67.0862 474.482,0 0,40.2517 -498.8769,0 24.3949,-40.2517 z m -3.6592,-409.8353 c 37.5588,94.2551 62.0558,194.633 -4.879,337.8702 38.228,-103.4737 31.7205,-218.1303 4.879,-337.8702 z m -1191.7721,120.0807 1055.7465,0 c 20.77,0 37.7541,16.9784 37.7541,37.7515 l 0,18.8705 c 0,20.774 -16.9841,37.7524 -37.7541,37.7524 l -1055.7465,0 c -20.768,0 -37.7546,-16.9784 -37.7546,-37.7524 l 0,-18.8705 c 0,-20.7731 16.9866,-37.7515 37.7546,-37.7515 z m 1149.8636,207.8132 c -6.3601,76.4008 -92.0347,81.6276 -92.0347,188.0003 l 0,91.9998 556.2087,0 92.0345,-1.2308 216.081,1.2308 c 32.8496,0 40.4414,-61.8786 43.9008,-92.1158 4.3503,-38.0242 15.5534,-74.5787 16.1767,-115.8293 1.2314,-81.5057 15.9511,-161.4821 15.9511,-252.055 l 0,-7.9999 c 0,-69.2595 -7.4755,-170.1479 -18.3957,-233.6114 -8.8429,-51.3921 -11.5126,-186.3887 -61.6342,-186.3887 l -212.0797,0 -52.1391,7.3029 c -7.7423,-3.4611 -11.6804,-7.3029 -23.8895,-7.3029 l -572.2146,0 0,104 c 0,85.7787 90.5405,108.961 92.0347,176.0001 -42.7323,9.9518 -62.252,24.0001 -120.0453,24.0001 l -208.078,0 c -208.406,0 -492.5438,7.668 -675.4031,-20.8503 -56.158,-8.7582 -103.8461,-0.5785 -155.3128,-20.7453 -40.3078,-15.7941 -79.181,-37.133 -112.8931,-59.1494 -56.8126,-37.1024 -140.3961,-123.255 -220.8277,-123.255 l -8.0031,0 c -61.3043,0 -264.0991,153.5848 -264.0991,203.9998 l 0,4 c 0,17.8571 20.738,44.0002 36.0136,44.0002 l 20.0075,0 c 65.4352,0 133.8639,-32 196.0736,-32 58.227,0 96.0361,88.7051 96.0361,151.9999 l 0,24.0001 c 0,26.8512 -99.3646,38.0174 -127.2039,44.8438 -30.2862,7.4262 -120.8894,9.1897 -120.8894,47.1561 l 0,12.0002 c 0,39.4353 161.4078,87.9998 216.081,87.9998 l 20.0075,0 c 144.7668,0 192.7191,-92.5296 296.0689,-92.0423 131.8759,0.6216 251.4486,4.0425 384.1866,4.0425 176.7597,0 639.9737,-23.9488 748.2807,27.9997 z m 616.7214,-580.0793 43.5262,0.079 c 26.6247,0 43.1606,135.5255 44.1683,167.8481 2.0804,66.714 11.8525,125.2653 11.8525,200.1518 l 0,68 c 0,77.7986 -5.7339,145.7346 -12.1254,215.879 -2.7635,30.3273 -7.9002,67.0297 -12.7891,99.216 -4.3773,28.8184 -3.477,80.905 -35.108,80.905 l -42.8297,0.1114 22.8795,-243.7305 -6.0593,-0.8529 -4.9184,16.5266 6.9191,-168.0546 0.9649,-56.048 -4.9666,-115.9517 5.7149,-0.022 2.2882,252.0224 3.8897,-0.01 8.1147,-147.9929 1.5267,-68.1052 -9.5295,-147.8948 3.2644,0.1015 4.7384,39.8988 48.018,0 c 0,-9.4921 -9.0017,-75.4614 -11.0021,-85.0023 -3.7193,-17.7395 -2.0749,-78.9979 -21.0098,-78.9979 l -42.9962,-0.1655 -4.5314,-27.9139 z m -84.5218,0.079 32.0119,0 c 51.7717,0 60.0225,322.8607 60.0225,399.9999 l 0,44.0003 c 0,69.4734 -13.5057,387.9997 -56.0211,387.9997 l -36.2681,-0.024 28.2651,-339.976 0.9558,-112.0598 -4.9572,-91.9403 -5.1625,0.06 5.7215,107.9575 -4.5604,179.9822 -4.0017,0 c 0,-100.0296 -0.1709,-200.0722 -0.0978,-300.0977 0.0689,-93.8299 -15.908,-183.6632 -15.908,-275.9023 z m 288.108,444.0002 c 0,60.4975 -24.2195,387.9997 -56.0211,387.9997 l -56.0208,0 36.9394,-371.5208 -4.9275,-0.4791 0,-79.9999 c 0,-53.947 -1.2767,-129.9963 -8.8546,-179.149 -5.1225,-33.2283 -23.1573,-135.1109 -23.1573,-160.8512 l 0,-39.9999 52.0194,0 c 34.1629,0 60.0225,284.0102 60.0225,340.0001 l 0,104.0001 z m -349.776,146.355 c 11.0625,-33.3766 25.6544,-81.4541 25.6544,-122.3552 l 0,-76 c 0,-53.1045 -8.4816,-96.5072 -22.4345,-137.5739 -17.6239,-51.8709 -45.0922,-46.4264 -109.6149,-46.4261 -105.3729,3e-4 -210.746,0 -316.1189,0 -19.1267,-28.5525 -28.2452,-48.0532 -50.4102,-77.6086 -13.5762,-18.1032 -61.6317,-51.9559 -61.6317,-62.3914 l 0,-68 536.2013,0 c 48.0651,0 52.7766,109.2129 56.0098,156.0109 4.5294,65.5608 12.0155,125.4648 12.0155,195.9891 l 0,119.9999 c 0,74.204 -7.2375,138.8322 -12.0155,207.989 -3.6307,52.5504 -8.8342,156.0113 -64.0129,156.0113 l -508.1907,0 c -15.4066,0 -16.4648,-2.217 -20.0075,-12.0002 l 64.0242,0 316.1009,-4.9368 0.0176,-3.0631 -344.0973,-9.4099 -36.0454,1.4099 0,-43.9999 c 0,-8.4263 52.3947,-48.0453 64.0545,-63.9697 19.2852,-26.3382 30.4622,-49.8688 47.9874,-76.0303 101.3715,0 202.743,0 304.1141,0 57.007,0 103.3971,11.6183 118.3998,-33.645 z m -2155.1638,-386.3551 c 18.4297,-27.5114 147.7273,-120.0002 192.0722,-120.0002 l 20.0075,0 c 32.0428,0 117.1513,64.6341 141.1477,82.9051 48.9861,37.2983 82.376,66.7369 141.6158,94.5698 65.8114,30.9189 307.3932,46.5916 405.4947,46.5916 l 668.3493,-3.145 51.9208,-4.921 c -29.4517,25.5898 -445.3483,22.9782 -526.3685,22.9782 -180.0674,0 -360.1349,0 -539.6221,0.4811 l -8.5833,11.5188 c 202.7426,0 405.4853,0 608.2279,0 101.3715,0 202.743,0 304.1141,0 103.7764,0 214.2513,-26.6657 214.2513,77.0216 0,121.8617 -104.3226,67.2489 -214.6246,75.5005 -95.0108,7.1079 -206.4878,4.0315 -308.084,4.0315 -202.091,0 -415.7793,3.9999 -624.2344,3.9999 l 0.0111,2.2958 1078.9064,26.1731 0,3.9994 c -238.7563,0 -477.5122,-4.3914 -716.2685,-4.3914 -118.7113,0 -231.3235,-3.7403 -350.0348,-3.7406 -83.4415,-6e-4 -89.5728,21.3537 -142.1838,52.0977 -29.3638,17.1595 -96.8023,36.034 -144.0201,36.034 -65.7205,0 -180.222,-28.3898 -204.0767,-64.0001 23.9474,-1.9919 111.0076,-21.164 135.4947,-28.5562 37.6401,-11.3635 112.5983,-7.6892 112.5983,-55.444 l 0,-47.9996 c 0,-68.8663 -57.0537,-172 -116.0433,-172 l -8.003,0 c -88.289,0 -144.2129,36.0002 -200.075,36.0002 l -16.0061,0 c 5.025,-18.8126 92.3581,-54.1808 114.6943,-65.3485 20.3284,-10.1639 109.2574,-58.6519 125.3957,-58.6519 l 12.0047,0 c 115.2836,0 232.0869,165.7777 232.0869,288 l 0.8886,32.133 -4.89,35.867 c 18.6675,-13.672 32.0119,-66.2434 32.0119,-99.9997 l 0,-36 c 0,-73.0276 -53.2624,-142.488 -94.9391,-177.0962 -35.6726,-29.6235 -116.0674,-102.9039 -173.1614,-102.9039 -38.0962,0 -158.635,100.9386 -200.0752,112 z m 1756.6591,352 13.765,-95.7322 0.2325,-84.5473 -13.9847,-99.7222 296.0982,0 c 28.5486,0 44.1369,5.4147 50.5528,29.4661 2.026,7.5952 9.4697,60.353 9.4697,66.534 l 0,103.9997 c 0,31.7191 -7.0591,80.0002 -40.015,80.0002 l -316.1185,0 z m 144.0541,-136 0,7.9999 c 0,36.5406 44.5918,76 84.0314,76 l 4.0014,0 c 28.4321,0 52.734,-11.4826 66.6794,-29.5764 25.6053,-33.2218 25.9769,-84.638 -3.2582,-116.5502 -14.2707,-15.5775 -34.4157,-25.8735 -55.4182,-25.8735 l -20.0074,0 c -43.6862,0 -76.0284,42.9327 -76.0284,88.0002 z m 152.0569,-364 136.0511,0 -4.3517,-27.9343 -555.8584,-0.066 0,24.0001 c 0,18.2251 85.0827,99.9998 92.0344,99.9998 l 264.0991,0 0,8.0002 -264.0991,0 c 1.6393,19.6895 11.0696,32.0001 32.0119,32.0001 l 452.1697,0 -12.7469,-123.9154 -8.0609,-7.2848 -131.2492,-0.7999 0,-4 z m 352.056,-23.9885 24.3532,159.9477 55.753,0.041 -23.3819,-160.096 -56.7243,0.1074 z m 32.0881,343.9885 c 7.1836,-4.3055 12.7542,-8.0002 24.0089,-8.0002 l 8.0031,0 c 12.9254,0 19.8626,14.0326 28.0105,20.0001 l -4.9609,-99.9448 0.9595,-20.0551 -56.0211,0 0,108 z m -648.2432,-8.0002 68.0256,0 c 25.1379,0 32.3733,-30.6179 46.8887,-45.1287 21.0611,-21.0549 42.0928,-21.7879 57.1504,-34.8712 l -192.0722,0 c 0,17.7131 3.2539,79.9999 20.0075,79.9999 z m 439.7273,-331.4948 40.2548,0 24.8848,161.7511 -40.2548,0 -24.8848,-161.7511 z"
           style="fill:#ffffff;fill-opacity:1;fill-rule:evenodd;stroke:#2d2c2b;stroke-width:0.21600001;stroke-miterlimit:10.43299961"
           inkscape:connector-curvature="0" />
        <path
           id="path12"
           d="m -858.3796,-1048.8317 c 7.532,-16.9387 13.711,-28.8669 18.5491,-35.6578 4.8031,-6.8644 10.2042,-12.3472 16.2842,-16.4792 10.5443,-7.2048 23.0002,-10.8321 37.3197,-10.7765 14.3201,0.056 31.5709,3.8188 51.8342,11.2575 14.1263,5.186 27.5053,11.7496 40.1133,19.7439 12.6084,7.994 24.4694,17.3659 35.4673,28.0735 l -29.4728,66.2819 -56.3316,-20.6799 2.0583,-4.6292 c 4.7485,-10.679 6.0226,-19.4511 3.8804,-26.2956 -2.1423,-6.8443 -7.7118,-11.8874 -16.8013,-15.224 -9.7267,-3.5708 -17.9248,-3.4594 -24.5715,0.2806 -6.6703,3.793 -12.7184,11.7916 -18.1686,24.0486 l -35.7882,80.4852 c -5.4738,12.3094 -7.2613,21.9333 -5.3628,28.872 1.9215,6.8856 7.7338,12.1402 17.4602,15.711 9.4949,3.4855 17.5541,3.3843 24.1428,-0.377 6.5885,-3.7616 12.6608,-11.8128 18.1812,-24.2277 l 7.4149,-16.6757 56.3316,20.6799 -35.765,80.4328 c -15.0671,1.3221 -30.4292,0.8841 -46.086,-1.3147 -15.6798,-2.1461 -30.7162,-5.8913 -45.1903,-11.2048 -18.3525,-6.7374 -32.5865,-14.1043 -42.7594,-22.1224 -10.1502,-8.0708 -16.9217,-17.2267 -20.21,-27.5514 -2.4293,-7.5617 -2.8733,-15.8023 -1.3551,-24.6682 1.5177,-8.8665 6.4174,-22.6105 14.6976,-41.2325 l 34.1278,-76.7503 z m 231.7869,27.4431 10.1272,-39.8582 90.9577,19.0802 -10.1273,39.8586 c -5.5179,0.5312 -9.7819,2.4315 -12.8524,5.6888 -2.9957,3.2145 -5.8844,10.2949 -8.6513,21.1853 l -24.286,95.5823 c -3.287,12.9362 -3.4097,22.7511 -0.3683,29.4446 3.1165,6.6515 9.6261,11.0449 19.6043,13.138 9.9779,2.0931 18.145,0.7203 24.5154,-4.1737 6.356,-4.8388 11.0653,-13.284 14.1131,-25.2803 l 26.2949,-103.4878 c 1.8399,-7.2419 2.0791,-12.7233 0.8068,-16.5424 -1.2729,-3.8188 -4.3333,-6.9063 -9.2425,-9.2755 l 10.1272,-39.8585 82.1359,17.2301 -10.1273,39.8582 c -5.7568,-0.0431 -10.0904,1.3768 -13.0913,4.3577 -2.9859,2.9256 -5.7387,9.2191 -8.1827,18.8379 l -25.9576,102.1612 c -4.0457,15.9214 -8.3851,27.7047 -13.0613,35.5161 -4.6623,7.7562 -10.8788,14.313 -18.5734,19.6283 -9.417,6.2929 -20.4534,10.3827 -33.1556,12.202 -12.7632,1.8062 -26.3311,1.2308 -40.6895,-1.781 -31.8199,-6.675 -52.9968,-18.1633 -63.3617,-34.3704 -10.4262,-16.2201 -11.5982,-40.1068 -3.5918,-71.6173 l 25.2695,-99.4521 c 2.2189,-8.7347 2.6737,-14.8113 1.4247,-18.218 -1.2631,-3.3511 -4.586,-6.6682 -10.0567,-9.8541 z m 227.6207,235.5177 7.2837,-62.9703 62.2239,5.9423 -0.5744,4.9652 c -1.4161,12.2445 0.1543,21.465 4.7666,27.7245 4.6195,6.2031 12.4839,9.8637 23.4753,10.9134 8.6319,0.8243 15.8677,-0.938 21.7696,-5.2804 5.9018,-4.3427 9.3029,-10.4071 10.2103,-18.2503 0.8813,-7.6175 -1.1757,-14.2602 -6.226,-19.991 -5.0509,-5.7308 -14.4059,-11.7015 -28.0032,-17.9065 -3.0433,-1.3742 -7.4002,-3.331 -13.1269,-5.9315 -20.7945,-9.1168 -35.3565,-17.2964 -43.6856,-24.5381 -8.6132,-7.4974 -14.5825,-15.5979 -17.9214,-24.1886 -3.3318,-8.6474 -4.3698,-18.6729 -3.0447,-30.1275 2.6108,-22.57 13.0566,-39.5997 31.4,-51.0831 18.2747,-11.433 41.8223,-15.802 70.5744,-13.0561 16.8292,1.6072 32.5277,5.3884 46.9716,11.3315 14.4437,5.9437 27.9303,14.1914 40.4599,24.7439 l -6.847,59.1902 -61.1059,-5.8357 0.5155,-4.4577 c 1.2469,-10.7771 -0.3465,-19.2586 -4.7862,-25.3874 -4.4456,-6.0724 -11.509,-9.5995 -21.2588,-10.5304 -9.0665,-0.866 -16.5801,0.5845 -22.5347,4.2945 -5.9543,3.71 -9.3394,9.0915 -10.1551,16.1447 -0.7639,6.6016 1.6397,12.422 7.2652,17.5232 5.6326,5.0445 19.0141,12.0274 40.1455,20.9486 27.8454,11.6728 46.3068,23.5905 55.4534,35.7026 9.1474,12.1122 12.5556,28.2399 10.2388,48.2709 -2.7675,23.9245 -13.3636,42.2519 -31.8505,54.9769 -18.4247,12.7306 -41.9201,17.7321 -70.4239,15.01 -18.071,-1.7258 -34.8609,-5.8397 -50.3086,-12.335 -15.509,-6.5015 -29.1431,-15.1058 -40.9008,-25.8128 z M -65.6197,-943.469 c -8.9941,0.0845 -15.5316,2.3071 -19.6147,6.7819 -4.0193,4.4192 -6.1564,11.6487 -6.3505,21.7462 l -0.4913,25.5841 -51.7566,-0.8209 1.9703,-102.5634 218.6998,3.4688 -1.9705,102.5634 -51.1939,-0.8121 0.4915,-25.5841 c 0.1963,-10.211 -1.6611,-17.5604 -5.6341,-22.0496 -3.9111,-4.4881 -10.4842,-6.9188 -19.5945,-7.2904 l -2.8019,136.0859 c -0.2027,10.5517 0.6679,17.2613 2.5467,20.2419 1.8783,2.9804 5.5238,5.0242 10.8712,6.2439 l -0.8175,42.5455 -92.5866,-1.4684 0.8172,-42.5454 c 5.5158,-1.0474 9.3008,-3.0306 11.4201,-6.0611 2.0564,-3.0313 3.183,-9.6528 3.3811,-19.9771 l 2.6142,-136.0891 z m 254.9246,27.6429 8.3207,86.4193 c 1.279,13.2823 4.4946,22.5946 9.6528,27.9941 5.2153,5.3373 13.019,7.6218 23.4694,6.7909 10.2018,-0.811 17.3321,-4.2256 21.3232,-10.2948 3.9911,-6.0696 5.3784,-15.7479 4.0889,-29.1433 l -8.3214,-86.4193 c -1.2787,-13.282 -4.4891,-22.5382 -9.5798,-27.8855 -5.0905,-5.3479 -12.7651,-7.5853 -22.9665,-6.7743 -10.4504,0.8309 -17.6994,4.3118 -21.815,10.391 -4.0481,6.1311 -5.4406,15.7527 -4.1723,28.9219 z m -63.5689,7.0469 c -1.97,-20.4602 -2.2383,-34.9619 -0.8206,-43.6745 1.4231,-8.6562 4.5099,-16.3054 9.2661,-22.8912 6.478,-8.8872 15.9052,-15.7875 28.2081,-20.8091 12.3091,-4.9652 28.3541,-8.2341 48.0103,-9.7966 19.4074,-1.5428 35.5843,-0.8356 48.4631,2.0705 12.9405,2.901 23.5485,8.2658 31.8861,16.0889 5.943,5.7353 10.4557,12.8942 13.5437,21.5336 3.0834,8.5825 5.5798,22.7931 7.4955,42.6884 l 7.9399,82.4626 c 1.9267,20.0084 2.1892,34.4532 0.7878,43.3355 -1.4011,8.8821 -4.4772,16.6442 -9.2334,23.2305 -6.716,9.0196 -16.1376,15.9764 -28.3163,20.9883 -12.1223,4.9504 -27.9183,8.1995 -47.3258,9.7421 -19.6562,1.5628 -36.0821,0.8751 -49.1529,-2.0727 -13.076,-3.0041 -23.6843,-8.3687 -31.7726,-16.2116 -5.9426,-5.7356 -10.4394,-12.7247 -13.4949,-21.0248 -3.0506,-8.2435 -5.563,-22.6239 -7.5443,-43.1969 l -7.9398,-82.463 z m 295.8952,-54.7154 31.5902,124.3289 c 2.3036,9.0661 4.8083,14.8879 7.4247,17.3668 2.6304,2.5344 6.8055,3.5801 12.4777,3.2054 l 10.5348,41.4612 -78.6069,16.4897 -10.5348,-41.4615 c 5.1107,-1.0721 8.3726,-3.6196 9.7994,-7.5875 1.4131,-4.0226 1.1644,-9.7937 -0.7458,-17.3117 l -30.1716,-118.7456 c -1.9944,-7.8503 -4.5507,-13.3699 -7.6396,-16.4483 -3.1037,-3.1337 -7.4796,-4.7197 -13.1288,-4.7574 l -10.2112,-40.1902 96.4332,-20.2292 70.7833,133.0521 -2.2156,-147.4356 97.8938,-20.5353 10.2119,40.1899 c -5.2744,2.4457 -8.5734,5.3504 -9.9399,8.5484 -1.3523,3.2536 -0.7712,9.8277 1.7575,19.7788 l 28.3875,111.7244 c 2.7669,10.8904 5.6271,17.8602 8.5807,20.9092 2.9396,2.9934 7.3064,4.2902 13.1003,3.89 l 10.5344,41.4612 -89.1321,18.6976 -10.5351,-41.4612 c 4.8862,-1.9568 7.8534,-4.9085 8.962,-8.8674 1.034,-4.0016 0.2235,-11.2269 -2.4735,-21.8409 l -29.4973,-116.0921 -0.6489,195.4344 -25.6748,5.3858 -97.3155,-178.9599 z m 311.6965,109.2733 -26.1042,-58.7067 58.0102,-21.2961 2.0586,4.629 c 5.076,11.4154 11.2269,18.8867 18.5335,22.4461 7.2836,3.5062 16.1189,3.3837 26.366,-0.3781 8.0478,-2.9546 13.5259,-7.5969 16.4934,-13.9487 2.9671,-6.3519 2.8368,-13.1573 -0.4146,-20.4696 -3.1576,-7.1016 -8.406,-12.0895 -15.8267,-14.995 -7.4201,-2.9058 -18.7653,-4.1867 -33.9769,-3.865 -3.3971,0.0845 -8.2551,0.2154 -14.6552,0.3623 -23.0711,0.8206 -40.1548,-0.1897 -51.2504,-3.0309 -11.4789,-2.9454 -20.9349,-7.5514 -28.3216,-13.7126 -7.4096,-6.2138 -13.5065,-14.623 -18.2547,-25.302 -9.3566,-21.0419 -8.9319,-40.5343 1.3305,-58.4983 10.2285,-17.89 28.7626,-31.7922 55.5681,-41.633 15.6893,-5.7597 31.504,-9.1176 47.3282,-10.0315 15.8239,-0.9134 31.9932,0.6159 48.5083,4.5884 l 24.5374,55.1823 -56.9685,20.9138 -1.8479,-4.1556 c -4.4676,-10.0477 -10.2566,-16.8568 -17.343,-20.3743 -7.0632,-3.4651 -15.1223,-3.5663 -24.2118,-0.2293 -8.4526,3.1028 -14.3373,7.5886 -17.678,13.4044 -3.3401,5.8156 -3.5486,12.0113 -0.6246,18.5868 2.7365,6.1549 7.8659,10.2688 15.4688,12.3729 7.5795,2.0518 23.0026,2.5087 46.27,1.3714 30.6168,-1.5715 53.0755,1.0761 67.4097,7.8687 14.3342,6.7924 25.677,19.5787 33.9806,38.2533 9.918,22.3044 10.0315,43.0067 0.2836,62.1281 -9.6905,19.1001 -27.8515,33.5386 -54.4251,43.2941 -16.8475,6.1846 -33.7978,9.7149 -50.7931,10.5692 -17.053,0.8751 -33.5369,-0.9059 -49.4506,-5.3441 z"
           style="fill:#ffffff;fill-opacity:1;fill-rule:evenodd"
           inkscape:connector-curvature="0" />
      </g>
    </g>
  </g>
  <g
     id="g16" />
  <g
     id="g18" />
</svg>
